<svg xmlns="http://www.w3.org/2000/svg" viewBox="0 0 252.97 28.77"><defs><style>.cls-1{fill:#3e3a39;}.cls-2{fill:#ffd900;}</style></defs><title>자산 1</title><g id="레이어_2" data-name="레이어 2"><g id="Layer_1" data-name="Layer 1"><circle class="cls-1" cx="143.97" cy="14.38" r="14.38" transform="translate(96.69 151.13) rotate(-76.63)"/><path class="cls-2" d="M144,.45A13.93,13.93,0,1,0,157.9,14.38,13.95,13.95,0,0,0,144,.45Zm0,27.31a13.38,13.38,0,1,1,13.38-13.38A13.39,13.39,0,0,1,144,27.76Z"/><path class="cls-2" d="M136.34,11.56a2.29,2.29,0,0,0,0-1.55l-.94.16a1.24,1.24,0,0,1,0,.89,1.07,1.07,0,0,1-1.4.62,1,1,0,0,1-.73-1.28,1.22,1.22,0,0,1,.49-.65L133.16,9a2.24,2.24,0,0,0-.83,1.17,2,2,0,0,0,1.34,2.62A2,2,0,0,0,136.34,11.56Z"/><path class="cls-2" d="M134.86,9.25a2,2,0,0,0,3-.2,2,2,0,0,0-.24-3,2.12,2.12,0,0,0-1.44-.52,2,2,0,0,0-1.53.76A2.07,2.07,0,0,0,134.86,9.25Zm.44-2.33a1.11,1.11,0,0,1,1.59,0c.53.46.62,1,.22,1.45a.91.91,0,0,1-.64.27,1.42,1.42,0,0,1-.9-.34C135.05,7.88,134.94,7.34,135.3,6.92Z"/><polygon class="cls-2" points="139.63 7.17 139.13 5.07 140.74 6.76 141.37 6.52 141.48 4.18 142.47 6.11 143.4 5.76 143.42 5.63 141.51 2.17 140.71 2.47 140.6 5.16 138.75 3.2 137.94 3.5 138.79 7.48 139.63 7.17"/><path class="cls-2" d="M143.72,5.69l0,.22,1.06.15.18-1.2.29,0a2.17,2.17,0,0,0,1-.06,1.38,1.38,0,0,0,.86-1.11,1.41,1.41,0,0,0-.29-1.12A2,2,0,0,0,145.45,2L144.61,2l-.35,0-.52,3.62.06.11Zm1.48-2.77.28,0c.43.06.66.31.61.67s-.35.52-.79.46L145,4Z"/><polygon class="cls-2" points="143.47 5.74 143.42 5.63 143.4 5.76 143.47 5.74"/><path class="cls-2" d="M148.09,7.28A2,2,0,0,0,151,6.46,2.16,2.16,0,0,0,151.25,5a2,2,0,0,0-1-1.36,2.08,2.08,0,0,0-2.88.82A2,2,0,0,0,148.09,7.28Zm.27-2.35c.35-.6.86-.81,1.34-.53A1.1,1.1,0,0,1,150,6c-.35.62-.89.81-1.37.49a.87.87,0,0,1-.4-.57A1.47,1.47,0,0,1,148.36,4.93Z"/><path class="cls-2" d="M151.09,8.7a1.88,1.88,0,0,1-.22-1.18L150,8a2.55,2.55,0,0,0,.5,1.41,1.35,1.35,0,0,0,1.93.43,1.1,1.1,0,0,0,.45-.79,3.9,3.9,0,0,0-.08-.92c-.07-.4,0-.53.12-.63a.37.37,0,0,1,.49.12,1.54,1.54,0,0,1,.24.88l.8-.31A2.39,2.39,0,0,0,154,6.94a1.86,1.86,0,0,0-.69-.53,1.14,1.14,0,0,0-1.1.15,1.18,1.18,0,0,0-.46,1.23c0,.08,0,.24.08.47s0,.5-.12.6A.4.4,0,0,1,151.09,8.7Z"/><polygon class="cls-2" points="155.35 9.34 151.52 10.59 152.34 13.13 153.18 12.96 152.65 11.32 153.45 11.06 153.85 12.31 154.6 12.07 154.19 10.81 154.88 10.59 155.34 11.99 156.13 11.73 155.35 9.34"/><path class="cls-2" d="M144,6.92a7.46,7.46,0,1,0,7.46,7.46A7.46,7.46,0,0,0,144,6.92Zm4,1.76a4.92,4.92,0,0,1,.52.41l-.15.17a5,5,0,0,0-.51-.4ZM146.85,8a6.63,6.63,0,0,1,.59.31l-.11.19-.57-.29Zm-1.25-.43a6.55,6.55,0,0,1,.63.19l-.07.21a6.32,6.32,0,0,0-.62-.18Zm-1.32-.18q.33,0,.66.06l0,.22c-.21,0-.43,0-.64-.06ZM144,8.57a.43.43,0,0,1,.45.4v1.26a.43.43,0,0,1-.45.4.44.44,0,0,1-.46-.4V9A.44.44,0,0,1,144,8.57Zm-.35-1.17v.23c-.22,0-.43,0-.64.06l0-.22A4.9,4.9,0,0,1,143.62,7.4Zm-1.32.19,0,.22c-.2.05-.41.11-.61.18l-.08-.21C141.87,7.71,142.09,7.64,142.3,7.59ZM141.05,8l.09.2a6.19,6.19,0,0,0-.57.3l-.11-.19A4.75,4.75,0,0,1,141.05,8Zm-.81,10,2.57-4.83.08-.08,4.82-2.56a.22.22,0,0,1,.24,0h0a.21.21,0,0,1,0,.24l-2.56,4.79a.2.2,0,0,1-.08.08l-4.82,2.59a.21.21,0,0,1-.24,0A.22.22,0,0,1,140.24,18ZM139.9,8.7l.13.18c-.17.13-.34.26-.5.4l-.15-.17A5.21,5.21,0,0,1,139.9,8.7Zm-1,.87.16.16a4.81,4.81,0,0,0-.42.48l-.18-.14C138.6,9.9,138.74,9.73,138.9,9.57Zm-.82,1,.19.12a4.48,4.48,0,0,0-.32.56l-.21-.11C137.85,11,138,10.8,138.08,10.62Zm-.61,1.18.21.08a6.26,6.26,0,0,0-.21.61l-.22-.06C137.32,12.21,137.39,12,137.47,11.8Zm-.37,1.27.22,0c0,.2-.07.42-.09.63l-.22,0Q137,13.4,137.1,13.07ZM137,14.4h.22c0,.21,0,.43,0,.64l-.22,0Q137,14.73,137,14.4Zm.28,2c-.06-.21-.11-.42-.16-.64l.23,0a6.23,6.23,0,0,0,.15.62Zm.5,1.24a4.78,4.78,0,0,1-.28-.61l.21-.08a6.11,6.11,0,0,0,.27.58Zm.72,1.11a5.3,5.3,0,0,1-.39-.54l.19-.12c.12.18.24.35.37.52Zm.92,1c-.17-.14-.33-.3-.49-.46l.17-.15c.14.15.3.3.46.44Zm-.85-4.83a.46.46,0,0,1,0-.91h1.26a.46.46,0,0,1,0,.91Zm1.93,5.6a6.65,6.65,0,0,1-.56-.36l.13-.18.54.35Zm1.21.55a6.62,6.62,0,0,1-.62-.24l.09-.21.6.24Zm1.29.31c-.22,0-.44-.07-.65-.12l0-.22.63.12Zm1,.07h-.33v-.23h.65v.23Zm.45-1.57a.43.43,0,0,1-.45.4.44.44,0,0,1-.46-.4V18.54a.44.44,0,0,1,.46-.4.43.43,0,0,1,.45.4Zm.55,1.5,0-.22q.31,0,.63-.12l.05.22C145.41,21.23,145.19,21.27,145,21.3Zm1.29-.31-.08-.21a5.36,5.36,0,0,0,.6-.24l.1.2C146.67,20.83,146.47,20.92,146.26,21Zm1.21-.55-.12-.2a5,5,0,0,0,.54-.35l.14.19C147.85,20.2,147.66,20.33,147.47,20.44Zm1.08-.78-.15-.17.47-.44.16.16C148.88,19.37,148.71,19.52,148.55,19.66Zm-.43-4.82a.46.46,0,0,1,0-.91h1.26a.46.46,0,0,1,0,.91Zm1.34,3.86-.17-.14c.13-.16.25-.34.37-.52l.19.12A5.3,5.3,0,0,1,149.46,18.7Zm.72-1.11-.2-.11a6.11,6.11,0,0,0,.27-.58l.21.08C150.38,17.19,150.28,17.39,150.18,17.59Zm.5-1.24-.22-.06q.09-.32.15-.63l.22.05C150.79,15.92,150.74,16.14,150.68,16.35Zm.28-2c0,.22,0,.45,0,.67l-.23,0c0-.22,0-.43,0-.65v0H151Zm0-.69-.22,0c0-.22,0-.43-.09-.64l.22,0C150.87,13.25,150.9,13.47,150.92,13.69Zm-.47-1.93c.08.21.16.42.22.63l-.22.06q-.09-.3-.21-.6Zm-.61-1.18a6.65,6.65,0,0,1,.33.58l-.2.1c-.1-.19-.21-.37-.32-.55Zm-.57-.4a6.27,6.27,0,0,0-.42-.48l.16-.16c.15.16.3.33.44.5Z"/><path class="cls-2" d="M143.6,14.88a.74.74,0,0,0,1,0l.46.46,2.23-4.16-4.17,2.21.45.46A.74.74,0,0,0,143.6,14.88Zm.17-.86a.49.49,0,1,1,0,.69A.51.51,0,0,1,143.77,14Z"/><path class="cls-2" d="M144,18.25a.33.33,0,0,0-.35.29V19.8a.32.32,0,0,0,.35.28.31.31,0,0,0,.34-.28V18.54A.32.32,0,0,0,144,18.25Zm.23,1.55c0,.09-.11.17-.23.17s-.23-.08-.23-.17V18.54a.21.21,0,0,1,.23-.18.21.21,0,0,1,.23.18Z"/><path class="cls-2" d="M144,10.52a.32.32,0,0,0,.34-.29V9a.32.32,0,0,0-.34-.29.33.33,0,0,0-.35.29v1.26A.33.33,0,0,0,144,10.52ZM143.74,9c0-.09.1-.17.23-.17s.23.08.23.17v1.26c0,.09-.11.17-.23.17s-.23-.08-.23-.17Z"/><path class="cls-2" d="M149.67,14.38a.32.32,0,0,0-.29-.34h-1.26a.32.32,0,0,0-.29.34.33.33,0,0,0,.29.35h1.26A.33.33,0,0,0,149.67,14.38Zm-1.55.23c-.09,0-.17-.1-.17-.23s.08-.23.17-.23h1.26c.09,0,.17.11.17.23s-.08.23-.17.23Z"/><path class="cls-2" d="M139.81,14h-1.26a.32.32,0,0,0-.28.34.33.33,0,0,0,.28.35h1.26a.33.33,0,0,0,.29-.35A.32.32,0,0,0,139.81,14Zm0,.57h-1.26c-.09,0-.17-.1-.17-.23s.08-.23.17-.23h1.26a.21.21,0,0,1,.18.23A.21.21,0,0,1,139.81,14.61Z"/><path class="cls-2" d="M134.43,16.32a.45.45,0,1,1-.45-.45A.45.45,0,0,1,134.43,16.32Z"/><path class="cls-2" d="M154.52,16.32a.45.45,0,1,1-.45-.45A.45.45,0,0,1,154.52,16.32Z"/><path class="cls-2" d="M144.42,14.36a.3.3,0,0,1-.3.31.31.31,0,0,1-.31-.31.3.3,0,0,1,.31-.3A.29.29,0,0,1,144.42,14.36Z"/><path class="cls-2" d="M137.28,21.07a1.24,1.24,0,0,0-.36-.72,1,1,0,0,0-1.48.09,1.08,1.08,0,0,0-.07,1.54,1.23,1.23,0,0,0,.79.38l-.28.92a2.27,2.27,0,0,1-1.37-.72,2.14,2.14,0,0,1,3.08-3,2.21,2.21,0,0,1,.68,1.26Z"/><path class="cls-2" d="M140.92,22.87a2.21,2.21,0,0,1-.19,1.53A2.1,2.1,0,1,1,137,22.48a2.08,2.08,0,0,1,2.85-.93A2,2,0,0,1,140.92,22.87ZM138,23a1.45,1.45,0,0,0-.14,1,.84.84,0,0,0,.41.56c.49.31,1,.09,1.36-.54a1.11,1.11,0,0,0-.32-1.56C138.87,22.12,138.36,22.35,138,23Z"/><path class="cls-2" d="M142.5,24.32l1.22.17-.11.84-1.22-.16-.2,1.46-1.06-.14.55-4,2.43.33-.12.89-1.38-.18Z"/><path class="cls-2" d="M145.78,24.28l1.21-.22.15.84-1.21.22.26,1.45-1.05.19-.72-4,2.43-.43.16.88-1.38.25Z"/><path class="cls-2" d="M148.81,23l1.15-.63.38.7-1.16.62.41.75,1.51-.82.32.79-2.34,1.27-1.93-3.57,2.2-1.19.4.74-1.29.69Z"/><path class="cls-2" d="M151.52,20.84l.89-1,.58.54-.88,1,.62.58,1.16-1.27.57.65-1.81,2-3-2.75,1.69-1.84.62.57-1,1.07Z"/><path class="cls-1" d="M59.61,22.82h-5L53.45,12.64,49.17,22.82H46L41.79,12.69,40.56,22.82H36.39l2.77-19h4L48,15.51,52.89,3.79h4Z"/><path class="cls-1" d="M109.53,8.89c-1.7-1.16-2.77-1.59-3.94-1.59a1.72,1.72,0,0,0-1.82,1.51c0,.9.36,1.36,2,2.23a20.68,20.68,0,0,1,3.66,2.29,5.41,5.41,0,0,1,1.68,4c0,3.57-2.88,6.06-7,6.06a12,12,0,0,1-6.65-2.09L98,16.67a8.63,8.63,0,0,0,5,2.52,1.89,1.89,0,0,0,2.3-1.85c0-.82-.48-1.34-1.91-2.12-1-.53-1.65-.9-2-1.08-2.3-1.3-3.27-2.84-3.27-5.19a5.36,5.36,0,0,1,2.51-4.58,8.11,8.11,0,0,1,3.86-1.11A11,11,0,0,1,110.63,5Z"/><path class="cls-1" d="M33.42,6.37a9.33,9.33,0,0,0-7.33-3.11c-5.52,0-9.71,4.39-9.71,10.13s4.08,10,9.71,10C32,23.34,36,19.22,36,13.13A10.29,10.29,0,0,0,33.42,6.37ZM26.17,18.7a5.34,5.34,0,0,1-5.24-5.43,5.24,5.24,0,1,1,10.48,0A5.34,5.34,0,0,1,26.17,18.7Z"/><path class="cls-1" d="M14,17.26A5.44,5.44,0,1,1,13.65,9L16,5.27a10.23,10.23,0,0,0-6.38-2A9.61,9.61,0,0,0,0,13.13C0,19,3.69,23.08,9.18,23.34a10.45,10.45,0,0,0,6.91-2.12Z"/><polygon class="cls-1" points="117.93 18.81 117.93 14.84 124.06 14.84 124.06 11.13 117.93 11.13 117.93 7.7 124.76 7.7 124.76 3.79 113.09 3.79 113.09 22.82 124.76 22.82 124.76 18.81 117.93 18.81"/><path class="cls-1" d="M73.65,5.35c-.79-.71-1.83-1.48-4.63-1.48H61.37v19h5V17.07l1.37.06a9.83,9.83,0,0,0,4.76-1,6.56,6.56,0,0,0,3.24-5.75A6.55,6.55,0,0,0,73.65,5.35Zm-6.07,7.84c-.31,0-.75,0-1.23,0V7.82c.48,0,1-.06,1.32-.06,2,0,3.21,1.05,3.21,2.76S69.65,13.19,67.58,13.19Z"/><path class="cls-1" d="M94.17,6.37a9.3,9.3,0,0,0-7.33-3.11c-5.51,0-9.7,4.39-9.7,10.13s4.08,10,9.7,10c5.91,0,9.88-4.12,9.88-10.21A10.24,10.24,0,0,0,94.17,6.37ZM86.93,18.7a5.33,5.33,0,0,1-5.24-5.43,5.24,5.24,0,1,1,10.48,0A5.34,5.34,0,0,1,86.93,18.7Z"/><path class="cls-1" d="M205.53,11.88h5.74v4h-5.74v6.94h-5v-19H212V8h-6.49Z"/><path class="cls-1" d="M219.25,11.88H225v4h-5.74v6.94h-5v-19h11.47V8h-6.49Z"/><path class="cls-1" d="M176.82,17.26A5.43,5.43,0,1,1,176.49,9l2.37-3.73a10.23,10.23,0,0,0-6.38-2,9.61,9.61,0,0,0-9.65,9.87c0,5.83,3.69,9.95,9.18,10.21a10.44,10.44,0,0,0,6.91-2.12Z"/><polygon class="cls-1" points="232.66 18.81 232.66 14.84 238.79 14.84 238.79 11.13 232.66 11.13 232.66 7.7 239.49 7.7 239.49 3.79 227.82 3.79 227.82 22.82 239.49 22.82 239.49 18.81 232.66 18.81"/><polygon class="cls-1" points="246.14 18.81 246.14 14.84 252.27 14.84 252.27 11.13 246.14 11.13 246.14 7.7 252.97 7.7 252.97 3.79 241.3 3.79 241.3 22.82 252.97 22.82 252.97 18.81 246.14 18.81"/><path class="cls-1" d="M196.2,6.37a9.3,9.3,0,0,0-7.33-3.11c-5.51,0-9.71,4.39-9.71,10.13s4.09,10,9.71,10c5.9,0,9.88-4.12,9.88-10.21A10.24,10.24,0,0,0,196.2,6.37ZM189,18.7a5.34,5.34,0,0,1-5.25-5.43,5.25,5.25,0,1,1,10.49,0A5.34,5.34,0,0,1,189,18.7Z"/></g></g></svg>